<?xml version="1.0" encoding="UTF-8"?>
<svg id="Layer_1" xmlns="http://www.w3.org/2000/svg" version="1.1" viewBox="0 0 95 57">
  <!-- Generator: Adobe Illustrator 29.8.2, SVG Export Plug-In . SVG Version: 2.1.1 Build 3)  -->
  <defs>
    <style>
      .st0 {
        fill: #151515;
      }
    </style>
  </defs>
  <path class="st0" d="M90.27,26.18c2.56-3.18,3.87-7.4,3.19-11.93-.99-6.55-6.28-11.81-12.84-12.76-7.82-1.13-14.71,1.68-16.86,8.57-.47,1.49-1.88,2.48-3.45,2.48h-25.62c-1.57,0-2.99-1-3.45-2.5C29.13,3.12,22.23.29,14.39,1.41,7.83,2.35,2.52,7.61,1.53,14.17c-.68,4.53.63,8.75,3.19,11.93,1.12,1.39,1.12,3.33,0,4.72-2.15,2.67-3.42,6.09-3.37,9.8.12,7.95,6.58,14.65,14.52,15.04s14-2.78,15.64-9.78c.39-1.67,1.84-2.87,3.55-2.87h24.84c1.72,0,3.17,1.21,3.56,2.88,1.61,7.02,8.04,10.2,15.63,9.84,7.95-.38,14.42-7.08,14.54-15.04.06-3.71-1.22-7.12-3.37-9.8-1.12-1.39-1.12-3.33,0-4.72h0Z"/>
</svg>