<?xml version="1.0" encoding="UTF-8"?>
<svg id="Layer_1" xmlns="http://www.w3.org/2000/svg" version="1.1" viewBox="0 0 138 57">
  <!-- Generator: Adobe Illustrator 29.8.2, SVG Export Plug-In . SVG Version: 2.1.1 Build 3)  -->
  <defs>
    <style>
      .st0 {
        fill: #151515;
      }
    </style>
  </defs>
  <path class="st0" d="M132.95,26.17c2.57-3.19,3.88-7.42,3.2-11.97-.99-6.57-6.3-11.84-12.87-12.79-7.84-1.13-14.74,3.69-16.9,10.6-.47,1.5-1.89,2.49-3.46,2.49H35.11c-1.57,0-3-1-3.46-2.5C29.52,5.06,22.6.21,14.74,1.34,8.17,2.28,2.84,7.56,1.85,14.13c-.68,4.54.63,8.78,3.2,11.96,1.12,1.4,1.12,3.33,0,4.73-2.16,2.68-3.43,6.1-3.38,9.82.12,7.97,6.6,14.69,14.56,15.08,7.6.37,14.04-4.79,15.68-11.81.39-1.67,1.85-2.88,3.56-2.88h67.03c1.72,0,3.18,1.21,3.57,2.89,1.61,7.04,8.06,12.24,15.67,11.87,7.97-.38,14.46-7.1,14.58-15.08.06-3.72-1.22-7.14-3.38-9.82-1.12-1.4-1.12-3.33,0-4.73Z"/>
</svg>