<?xml version="1.0" encoding="UTF-8"?>
<svg id="Layer_1" xmlns="http://www.w3.org/2000/svg" version="1.1" viewBox="0 0 101.28 50">
  <!-- Generator: Adobe Illustrator 29.8.2, SVG Export Plug-In . SVG Version: 2.1.1 Build 3)  -->
  <defs>
    <style>
      .st0 {
        isolation: isolate;
      }

      .st1 {
        fill: #ffab36;
      }
    </style>
  </defs>
  <g>
    <g class="st0">
      <path class="st1" d="M65.21,11.38h.03c.48-.17,1.17-.24,1.7-.07,1.92.63,8.16,7.48,7.68,9.96-.95,4.73-4.8,2.19-8.05,2.28-2.78.07-5.67,2.81-7.62-.55-.78-1.36-.53-2.89.14-4.26.46-.93,5.41-7.06,6.11-7.35h0Z"/>
      <path class="st1" d="M67.66,9.74c-2.53-2.34.11-8.29,2.9-6.9,3.86,2.11.76,10.29-2.9,6.9Z"/>
      <path class="st1" d="M62.39,10.74c-5.22-.14-3.87-9.5.35-7.36,2.71,1.37,2.57,7.42-.35,7.36Z"/>
      <path class="st1" d="M58.63,15.54c-3.5,1.65-6.75-4.36-3.58-5.97,2.9-1.44,6.53,3.69,3.58,5.97Z"/>
      <path class="st1" d="M73.36,14.93c-3.41-2.1.16-8.1,3.37-5.99,2.53,1.67-.24,7.03-3.37,5.99Z"/>
    </g>
    <g class="st0">
      <path class="st1" d="M87.58,33.53l.03.02c.49.05,1.09.31,1.46.69,1.32,1.38,3.5,9.82,2.01,11.68-2.88,3.52-4.96-.3-7.72-1.65-2.36-1.17-5.98-.16-6.12-3.82-.04-1.48.85-2.63,2-3.48.78-.57,7.61-3.5,8.32-3.43l.03-.02Z"/>
      <path class="st1" d="M90.32,33.23c-1.08-3.06,3.75-6.87,5.46-4.46,2.29,3.46-3.91,8.9-5.46,4.46Z"/>
      <path class="st1" d="M85.48,31.74c-4.3-2.41.96-9.63,3.53-5.98,1.66,2.34-1.13,7.32-3.53,5.98Z"/>
      <path class="st1" d="M80.22,34.08c-3.64-.17-3.69-6.61-.35-6.55,3.07.07,3.82,5.96.35,6.55Z"/>
      <path class="st1" d="M92.78,40.08c-1.91-3.25,3.72-6.69,5.46-3.5,1.36,2.51-3.3,5.76-5.46,3.5Z"/>
    </g>
  </g>
  <g>
    <path d="M2.8,46.27l3.44-18.74h2.45l5.15,13.68h.08l5.15-13.68h2.45l3.44,18.74h-2.89l-1.51-8.92c-.22-1.28-.4-2.55-.55-3.81-.15-1.26-.24-2.52-.27-3.78h.69c-.33,1.52-.67,2.86-1.03,4.02-.36,1.16-.77,2.35-1.23,3.58l-3.22,8.61h-2.12l-3.22-8.61c-.46-1.25-.87-2.44-1.22-3.59-.36-1.15-.7-2.48-1.03-4h.69c-.04,1.27-.13,2.53-.28,3.78-.15,1.26-.33,2.53-.55,3.81l-1.51,8.92h-2.89Z"/>
    <path d="M33.19,46.55c-1.3,0-2.45-.29-3.44-.87s-1.76-1.39-2.31-2.44c-.55-1.05-.83-2.27-.83-3.66s.27-2.64.83-3.69c.55-1.05,1.32-1.86,2.31-2.45.99-.59,2.14-.88,3.44-.88s2.48.29,3.47.88c.99.59,1.76,1.4,2.31,2.45.55,1.05.83,2.28.83,3.69,0,.13,0,.26-.01.4,0,.14-.02.26-.04.37h-10.51v-2.37h8.53l-.77,1.6c0-1.39-.31-2.54-.94-3.44-.62-.9-1.58-1.35-2.86-1.35-1.14,0-2.05.36-2.72,1.09-.68.72-1.02,1.67-1.02,2.85v1.43c0,1.23.33,2.21.99,2.93s1.58,1.09,2.75,1.09c1.08,0,1.92-.23,2.5-.69.59-.46,1.1-1.03,1.54-1.71l2.06,1.29c-.62,1.16-1.43,2.02-2.41,2.6-.98.58-2.22.87-3.7.87Z"/>
    <path d="M49.78,32.57c.95,0,1.71.16,2.26.48.55.32.95.75,1.21,1.29.26.54.42,1.15.5,1.83.07.68.11,1.38.11,2.09v8.01h-2.75v-8.59c0-.95-.22-1.6-.65-1.93-.43-.33-.94-.5-1.53-.5s-1.18.12-1.79.36c-.61.24-1.15.56-1.62.96-.48.4-.84.85-1.1,1.35v-1.54h.44v9.88h-2.75v-13.43h2.09l.58,2.37-.69.08c.51-.59,1.07-1.08,1.68-1.49.61-.4,1.25-.71,1.93-.92s1.38-.32,2.09-.32Z"/>
    <path d="M61.23,46.55c-1.01,0-1.81-.16-2.39-.48-.59-.32-1.02-.75-1.29-1.29-.28-.54-.45-1.15-.54-1.83-.08-.68-.12-1.38-.12-2.09v-8.01h2.75v8.59c0,.95.22,1.6.65,1.93.43.33.94.5,1.53.5s1.21-.12,1.8-.36c.6-.24,1.14-.56,1.62-.98.49-.41.85-.86,1.09-1.33v1.54h-.44v-9.88h2.75v13.43h-2.09l-.58-2.37.69-.08c-.48.57-1.01,1.06-1.6,1.47-.59.41-1.2.72-1.84.94-.64.21-1.3.32-1.98.32Z"/>
  </g>
</svg>