<?xml version="1.0" encoding="UTF-8"?>
<svg id="Layer_1" xmlns="http://www.w3.org/2000/svg" version="1.1" viewBox="0 0 101.28 50">
  <!-- Generator: Adobe Illustrator 29.8.2, SVG Export Plug-In . SVG Version: 2.1.1 Build 3)  -->
  <defs>
    <style>
      .st0 {
        isolation: isolate;
      }

      .st1 {
        fill: #fff6c4;
      }
    </style>
  </defs>
  <g class="st0">
    <path class="st1" d="M65.21,11.38h.03c.48-.17,1.17-.24,1.7-.07,1.92.63,8.16,7.48,7.68,9.96-.95,4.73-4.8,2.19-8.05,2.28-2.78.07-5.67,2.81-7.62-.55-.78-1.36-.53-2.89.14-4.26.46-.93,5.41-7.06,6.11-7.35h0Z"/>
    <path class="st1" d="M67.66,9.74c-2.53-2.34.11-8.29,2.9-6.9,3.86,2.11.76,10.29-2.9,6.9Z"/>
    <path class="st1" d="M62.39,10.74c-5.22-.14-3.87-9.5.35-7.36,2.71,1.37,2.57,7.42-.35,7.36Z"/>
    <path class="st1" d="M58.63,15.54c-3.5,1.65-6.75-4.36-3.58-5.97,2.9-1.44,6.53,3.69,3.58,5.97Z"/>
    <path class="st1" d="M73.36,14.93c-3.41-2.1.16-8.1,3.37-5.99,2.53,1.67-.24,7.03-3.37,5.99Z"/>
  </g>
  <g class="st0">
    <path class="st1" d="M87.58,33.53l.03.02c.49.05,1.09.31,1.46.69,1.32,1.38,3.5,9.82,2.01,11.68-2.88,3.52-4.96-.3-7.72-1.65-2.36-1.17-5.98-.16-6.12-3.82-.04-1.48.85-2.63,2-3.48.78-.57,7.61-3.5,8.32-3.43l.03-.02Z"/>
    <path class="st1" d="M90.32,33.23c-1.08-3.06,3.75-6.87,5.46-4.46,2.29,3.46-3.91,8.9-5.46,4.46Z"/>
    <path class="st1" d="M85.48,31.74c-4.3-2.41.96-9.63,3.53-5.98,1.66,2.34-1.13,7.32-3.53,5.98Z"/>
    <path class="st1" d="M80.22,34.08c-3.64-.17-3.69-6.61-.35-6.55,3.07.07,3.82,5.96.35,6.55Z"/>
    <path class="st1" d="M92.78,40.08c-1.91-3.25,3.72-6.69,5.46-3.5,1.36,2.51-3.3,5.76-5.46,3.5Z"/>
  </g>
</svg>