<?xml version="1.0" encoding="iso-8859-1"?>
<!-- Generator: Adobe Illustrator 29.8.2, SVG Export Plug-In . SVG Version: 9.03 Build 0)  -->
<svg version="1.1" id="Layer_1" xmlns="http://www.w3.org/2000/svg" xmlns:xlink="http://www.w3.org/1999/xlink" x="0px" y="0px"
	 viewBox="0 0 101.28 50" style="enable-background:new 0 0 101.28 50;" xml:space="preserve">
<g>
	<g style="enable-background:new    ;">
		<path style="fill:#FFC93C;" d="M65.21,11.38h0.03c0.48-0.17,1.17-0.24,1.7-0.07c1.92,0.63,8.16,7.48,7.68,9.96
			c-0.95,4.73-4.8,2.19-8.05,2.28c-2.78,0.07-5.67,2.81-7.62-0.55c-0.78-1.36-0.53-2.89,0.14-4.26c0.46-0.93,5.41-7.06,6.11-7.35
			l0,0L65.21,11.38z"/>
		<path style="fill:#FFC93C;" d="M67.66,9.74c-2.53-2.34,0.11-8.29,2.9-6.9C74.42,4.95,71.32,13.13,67.66,9.74z"/>
		<path style="fill:#FFC93C;" d="M62.39,10.74c-5.22-0.14-3.87-9.5,0.35-7.36C65.45,4.75,65.31,10.8,62.39,10.74z"/>
		<path style="fill:#FFC93C;" d="M58.63,15.54c-3.5,1.65-6.75-4.36-3.58-5.97C57.95,8.13,61.58,13.26,58.63,15.54z"/>
		<path style="fill:#FFC93C;" d="M73.36,14.93c-3.41-2.1,0.16-8.1,3.37-5.99C79.26,10.61,76.49,15.97,73.36,14.93z"/>
	</g>
	<g style="enable-background:new    ;">
		<path style="fill:#FFC93C;" d="M87.58,33.53l0.03,0.02c0.49,0.05,1.09,0.31,1.46,0.69c1.32,1.38,3.5,9.82,2.01,11.68
			c-2.88,3.52-4.96-0.3-7.72-1.65c-2.36-1.17-5.98-0.16-6.12-3.82c-0.04-1.48,0.85-2.63,2-3.48c0.78-0.57,7.61-3.5,8.32-3.43
			l0.03-0.02L87.58,33.53z"/>
		<path style="fill:#FFC93C;" d="M90.32,33.23c-1.08-3.06,3.75-6.87,5.46-4.46C98.07,32.23,91.87,37.67,90.32,33.23z"/>
		<path style="fill:#FFC93C;" d="M85.48,31.74c-4.3-2.41,0.96-9.63,3.53-5.98C90.67,28.1,87.88,33.08,85.48,31.74z"/>
		<path style="fill:#FFC93C;" d="M80.22,34.08c-3.64-0.17-3.69-6.61-0.35-6.55C82.94,27.6,83.69,33.49,80.22,34.08z"/>
		<path style="fill:#FFC93C;" d="M92.78,40.08c-1.91-3.25,3.72-6.69,5.46-3.5C99.6,39.09,94.94,42.34,92.78,40.08z"/>
	</g>
</g>
<g>
	<path style="fill:#3B0017;" d="M2.8,46.27l3.44-18.74h2.45l5.15,13.68h0.08l5.15-13.68h2.45l3.44,18.74h-2.89l-1.51-8.92
		c-0.22-1.28-0.4-2.55-0.55-3.81c-0.15-1.26-0.24-2.52-0.27-3.78h0.69c-0.33,1.52-0.67,2.86-1.03,4.02s-0.77,2.35-1.23,3.58
		l-3.22,8.61h-2.12l-3.22-8.61c-0.46-1.25-0.87-2.44-1.22-3.59c-0.36-1.15-0.7-2.48-1.03-4h0.69c-0.04,1.27-0.13,2.53-0.28,3.78
		c-0.15,1.26-0.33,2.53-0.55,3.81l-1.51,8.92H2.82L2.8,46.27z"/>
	<path style="fill:#3B0017;" d="M33.19,46.55c-1.3,0-2.45-0.29-3.44-0.87s-1.76-1.39-2.31-2.44s-0.83-2.27-0.83-3.66
		s0.27-2.64,0.83-3.69c0.55-1.05,1.32-1.86,2.31-2.45s2.14-0.88,3.44-0.88c1.3,0,2.48,0.29,3.47,0.88s1.76,1.4,2.31,2.45
		c0.55,1.05,0.83,2.28,0.83,3.69c0,0.13,0,0.26-0.01,0.4c0,0.14-0.02,0.26-0.04,0.37H29.24v-2.37h8.53L37,39.58
		c0-1.39-0.31-2.54-0.94-3.44c-0.62-0.9-1.58-1.35-2.86-1.35c-1.14,0-2.05,0.36-2.72,1.09c-0.68,0.72-1.02,1.67-1.02,2.85v1.43
		c0,1.23,0.33,2.21,0.99,2.93s1.58,1.09,2.75,1.09c1.08,0,1.92-0.23,2.5-0.69c0.59-0.46,1.1-1.03,1.54-1.71l2.06,1.29
		c-0.62,1.16-1.43,2.02-2.41,2.6c-0.98,0.58-2.22,0.87-3.7,0.87L33.19,46.55z"/>
	<path style="fill:#3B0017;" d="M49.78,32.57c0.95,0,1.71,0.16,2.26,0.48s0.95,0.75,1.21,1.29s0.42,1.15,0.5,1.83
		c0.07,0.68,0.11,1.38,0.11,2.09v8.01h-2.75v-8.59c0-0.95-0.22-1.6-0.65-1.93s-0.94-0.5-1.53-0.5s-1.18,0.12-1.79,0.36
		s-1.15,0.56-1.62,0.96c-0.48,0.4-0.84,0.85-1.1,1.35v-1.54h0.44v9.88h-2.75V32.83h2.09l0.58,2.37l-0.69,0.08
		c0.51-0.59,1.07-1.08,1.68-1.49c0.61-0.4,1.25-0.71,1.93-0.92s1.38-0.32,2.09-0.32L49.78,32.57z"/>
	<path style="fill:#3B0017;" d="M61.23,46.55c-1.01,0-1.81-0.16-2.39-0.48c-0.59-0.32-1.02-0.75-1.29-1.29
		c-0.28-0.54-0.45-1.15-0.54-1.83c-0.08-0.68-0.12-1.38-0.12-2.09v-8.01h2.75v8.59c0,0.95,0.22,1.6,0.65,1.93s0.94,0.5,1.53,0.5
		s1.21-0.12,1.8-0.36c0.6-0.24,1.14-0.56,1.62-0.98c0.49-0.41,0.85-0.86,1.09-1.33v1.54h-0.44v-9.88h2.75v13.43h-2.09l-0.58-2.37
		l0.69-0.08c-0.48,0.57-1.01,1.06-1.6,1.47s-1.2,0.72-1.84,0.94c-0.64,0.21-1.3,0.32-1.98,0.32L61.23,46.55z"/>
</g>
</svg>
