<?xml version="1.0" encoding="UTF-8"?>
<svg id="Layer_1" xmlns="http://www.w3.org/2000/svg" version="1.1" viewBox="0 0 24 24">
  <!-- Generator: Adobe Illustrator 29.8.2, SVG Export Plug-In . SVG Version: 2.1.1 Build 3)  -->
  <defs>
    <style>
      .st0 {
        font-family: BlockBerthold, 'Block Berthold';
        font-size: 6.36px;
      }

      .st1 {
        fill: #f6a127;
        stroke: #f6a127;
        stroke-miterlimit: 10;
      }
    </style>
  </defs>
  <g>
    <path class="st1" d="M12.43,9.55c.7-.05,7.32,3.09,8.06,3.66,1.11.87,1.95,2.03,1.85,3.49-.26,3.58-3.78,2.48-6.12,3.53-2.74,1.22-4.95,4.92-7.63,1.34-1.4-1.87,1.03-10.11,2.39-11.4.36-.34.96-.58,1.46-.62Z"/>
    <path class="st1" d="M4.51,4.57c1.77-2.29,6.37,1.6,5.2,4.59-1.68,4.29-7.59-1.25-5.2-4.59Z"/>
    <path class="st1" d="M11.25,1.84c2.65-3.5,7.59,3.78,3.27,6-2.41,1.24-4.99-3.74-3.27-6Z"/>
    <path class="st1" d="M20.16,3.93c3.28.05,3.01,6.39-.59,6.42-3.4-.71-2.43-6.47.59-6.42Z"/>
    <path class="st1" d="M1.82,12.17c1.82-3.09,7.21.51,5.23,3.65-2.19,2.13-6.66-1.23-5.23-3.65Z"/>
  </g>
  <text class="st0" transform="translate(3.49 14.22)"><tspan x="0" y="0">MENU</tspan></text>
</svg>