<?xml version="1.0" encoding="UTF-8"?>
<svg id="Layer_1" xmlns="http://www.w3.org/2000/svg" version="1.1" viewBox="0 0 30.29 24">
  <!-- Generator: Adobe Illustrator 29.8.2, SVG Export Plug-In . SVG Version: 2.1.1 Build 3)  -->
  <defs>
    <style>
      .st0 {
        isolation: isolate;
      }

      .st1 {
        fill: #ffab36;
      }
    </style>
  </defs>
  <g class="st0">
    <path class="st1" d="M22.71,5.73c.35.22,2.41,4.04,2.56,4.59.23.81.21,1.66-.35,2.32-1.39,1.62-2.68-.15-4.18-.47-1.75-.38-4.09.61-4.13-2.05-.01-1.39,4.06-4.47,5.16-4.61.3-.04.67.07.91.22h.02s0,0,0,0Z"/>
    <path class="st1" d="M20.67.56c1.65-.47,2.48,3.02.88,4.03-2.32,1.46-3.18-3.28-.88-4.03Z"/>
    <path class="st1" d="M24.85,1.64c2.5-.73,2.29,4.47-.55,4.02-1.59-.26-1.05-3.55.55-4.02Z"/>
    <path class="st1" d="M28.39,5.77c1.55,1.19-.81,4.11-2.54,2.87-1.36-1.53,1.11-3.94,2.54-2.87Z"/>
    <path class="st1" d="M16.72,3.24c1.95-.82,3.28,2.78,1.22,3.58-1.8.25-2.76-2.93-1.22-3.58Z"/>
  </g>
  <g class="st0">
    <path class="st1" d="M7.68,16.09c.39.03,3.8,2.31,4.16,2.69.54.58.91,1.29.73,2.08-.45,1.96-2.3,1.05-3.7,1.45-1.63.45-3.14,2.31-4.35.11-.62-1.16,1.41-5.51,2.26-6.12.24-.17.59-.24.86-.22h.02s.02,0,.02,0Z"/>
    <path class="st1" d="M3.71,12.68c1.17-1.13,3.4,1.42,2.51,2.97-1.29,2.24-4.09-1.33-2.51-2.97Z"/>
    <path class="st1" d="M7.67,11.73c1.76-1.72,3.88,2.72,1.31,3.59-1.44.49-2.44-2.49-1.31-3.59Z"/>
    <path class="st1" d="M12.44,13.61c1.81.3,1.14,3.79-.85,3.51-1.82-.67-.82-3.78.85-3.51Z"/>
    <path class="st1" d="M1.59,16.66c1.26-1.55,3.96.88,2.6,2.44-1.39,1-3.59-1.22-2.6-2.44Z"/>
  </g>
</svg>