<?xml version="1.0" encoding="iso-8859-1"?>
<!-- Generator: Adobe Illustrator 29.8.2, SVG Export Plug-In . SVG Version: 9.03 Build 0)  -->
<svg version="1.1" id="Layer_1" xmlns="http://www.w3.org/2000/svg" xmlns:xlink="http://www.w3.org/1999/xlink" x="0px" y="0px"
	 viewBox="0 0 912.176 1023.491" style="enable-background:new 0 0 912.176 1023.491;" xml:space="preserve">
<g style="enable-background:new    ;">
	<path style="fill:#FFC93C;" d="M405.195,324.543h1.559c24.946-8.835,60.806-12.473,88.35-3.638
		c99.784,32.742,424.081,388.741,399.135,517.628c-49.372,245.821-249.46,113.816-418.364,118.493
		c-144.479,3.638-294.674,146.038-396.017-28.584c-40.537-70.68-27.544-150.195,7.276-221.395
		c23.906-48.333,281.162-366.913,317.541-381.985l0,0L405.195,324.543z"/>
	<path style="fill:#FFC93C;" d="M514.723,263.057c-90.678-83.868,3.943-297.124,103.94-247.304
		C757.01,91.378,645.902,384.559,514.723,263.057z"/>
	<path style="fill:#FFC93C;" d="M325.84,298.898c-187.091-5.018-138.705-340.491,12.544-263.791
		C435.514,84.21,430.496,301.049,325.84,298.898z"/>
	<path style="fill:#FFC93C;" d="M191.077,470.936C65.633,530.074-50.851,314.669,62.766,256.964
		C166.705,205.353,296.809,389.218,191.077,470.936z"/>
	<path style="fill:#FFC93C;" d="M719.018,449.073c-122.219-75.267,5.735-290.314,120.785-214.689
		C930.481,294.239,831.201,486.348,719.018,449.073z"/>
</g>
</svg>
