<?xml version="1.0" encoding="iso-8859-1"?>
<!-- Generator: Adobe Illustrator 29.8.2, SVG Export Plug-In . SVG Version: 9.03 Build 0)  -->
<svg version="1.1" id="Layer_1" xmlns="http://www.w3.org/2000/svg" xmlns:xlink="http://www.w3.org/1999/xlink" x="0px" y="0px"
	 viewBox="0 0 1080 999.103" style="enable-background:new 0 0 1080 999.103;" xml:space="preserve">
<g style="enable-background:new    ;">
	<path d="M500.418,398.258h1.338c21.413-7.584,52.194-10.706,75.837-3.123c85.652,28.105,364.021,333.686,342.608,444.32
		c-42.38,211.007-214.13,97.697-359.114,101.712c-124.017,3.123-252.941,125.355-339.931-24.536
		c-34.796-60.67-23.643-128.924,6.245-190.04c20.521-41.488,241.342-314.949,272.569-327.886l0,0L500.418,398.258z"/>
	<path d="M625.68,325.097c-112.864-104.388,4.907-369.82,129.37-307.812C927.246,111.413,788.954,476.326,625.68,325.097z"/>
	<path d="M390.583,369.707C157.716,363.462,217.94-54.092,406.196,41.375C527.09,102.491,520.845,372.384,390.583,369.707z"/>
	<path d="M222.848,583.837C66.711,657.444-78.273,389.336,63.142,317.513C192.513,253.274,354.448,482.125,222.848,583.837z"/>
	<path d="M879.959,556.625c-152.122-93.682,7.138-361.344,150.337-267.216C1143.16,363.908,1019.589,603.019,879.959,556.625z"/>
</g>
</svg>
